<?xml version="1.0" standalone="no"?>
<!DOCTYPE svg PUBLIC "-//W3C//DTD SVG 20010904//EN"
 "http://www.w3.org/TR/2001/REC-SVG-20010904/DTD/svg10.dtd">
<svg version="1.0" xmlns="http://www.w3.org/2000/svg"
 width="728.000000pt" height="728.000000pt" viewBox="0 0 728.000000 728.000000"
 preserveAspectRatio="xMidYMid meet">
<metadata>
Created by potrace 1.11, written by Peter Selinger 2001-2013
</metadata>
<g transform="translate(0.000000,728.000000) scale(0.100000,-0.100000)"
fill="#000000" stroke="none">
<path d="M19 7208 c10 -29 23 -64 29 -78 6 -14 38 -97 71 -185 150 -404 232
-622 241 -640 5 -11 45 -119 90 -240 45 -121 85 -229 90 -240 26 -61 130 -343
130 -353 0 -7 6 -12 13 -12 6 0 114 102 239 228 125 125 245 244 267 266 l40
39 1186 -1188 1186 -1187 -818 -818 c-645 -646 -824 -820 -848 -824 -35 -6
-89 -13 -160 -21 -46 -5 -96 -11 -170 -20 -16 -2 -43 -6 -60 -9 -16 -2 -59 -8
-94 -11 -35 -3 -78 -8 -95 -10 -39 -5 -123 -16 -156 -20 -59 -7 -127 -16 -160
-20 -19 -3 -60 -8 -90 -11 -30 -4 -64 -8 -75 -10 -11 -1 -30 -3 -43 -3 -19 -1
-23 -6 -20 -29 4 -33 5 -33 208 -7 19 3 58 7 85 10 28 3 61 8 75 10 14 2 48 7
75 10 28 3 67 7 88 10 20 3 54 7 75 10 20 2 73 9 117 14 44 6 103 13 130 16
28 3 64 8 80 10 17 3 57 7 90 10 l60 6 -41 -41 c-44 -43 -72 -51 -204 -65 -36
-3 -76 -8 -90 -10 -14 -2 -50 -7 -80 -10 -30 -3 -66 -8 -80 -10 -14 -3 -50 -7
-80 -10 -30 -3 -66 -8 -80 -10 -14 -2 -45 -6 -70 -9 -140 -15 -167 -19 -185
-22 -11 -2 -44 -7 -74 -10 -30 -3 -64 -8 -75 -10 -12 -2 -50 -7 -86 -10 -35
-3 -72 -10 -81 -15 -21 -11 -14 -49 10 -49 13 0 150 17 376 46 55 7 100 12
165 19 30 4 66 8 80 10 14 2 48 6 75 9 28 4 82 11 120 16 39 6 92 12 119 15
26 2 66 7 89 10 l40 6 -44 -45 c-39 -39 -51 -45 -99 -50 -30 -4 -66 -8 -80
-11 -27 -5 -97 -13 -170 -20 -25 -3 -79 -9 -120 -15 -75 -10 -92 -12 -205 -25
-33 -4 -71 -9 -85 -10 -14 -2 -61 -8 -105 -14 -44 -6 -102 -13 -130 -16 -61
-6 -145 -17 -165 -21 -8 -1 -21 -3 -28 -3 -8 -1 -11 -11 -9 -28 3 -20 9 -28
23 -26 36 3 119 13 149 17 17 2 55 7 85 11 30 3 66 8 80 10 14 2 50 7 80 10
30 3 91 10 135 16 181 22 372 46 445 54 30 4 58 8 62 8 15 4 6 -16 -23 -48
-24 -26 -42 -36 -78 -40 -25 -4 -61 -8 -79 -11 -18 -2 -54 -6 -80 -9 -26 -3
-60 -7 -77 -10 -117 -16 -197 -26 -240 -30 -27 -2 -59 -6 -70 -9 -11 -2 -49
-7 -85 -10 -36 -4 -77 -8 -90 -11 -14 -3 -52 -7 -85 -10 -33 -3 -67 -8 -75
-10 -8 -2 -42 -7 -75 -10 -33 -3 -69 -8 -80 -10 -11 -2 -33 -4 -48 -4 -25 -1
-28 -4 -25 -28 2 -23 8 -28 28 -27 37 2 141 13 170 18 14 3 52 8 85 11 113 13
128 14 159 19 17 3 54 8 81 11 28 3 66 7 85 10 19 3 55 7 80 10 25 3 61 7 80
10 19 2 60 7 90 10 30 3 66 8 80 10 14 2 52 7 84 11 l60 6 -41 -43 c-27 -28
-51 -44 -70 -45 -15 -2 -46 -5 -68 -9 -22 -3 -57 -7 -77 -10 -21 -3 -55 -7
-75 -10 -21 -3 -56 -7 -78 -10 -66 -7 -139 -16 -165 -20 -14 -2 -50 -6 -80
-10 -30 -3 -66 -8 -80 -10 -14 -2 -54 -7 -90 -11 -36 -3 -72 -7 -80 -9 -8 -1
-44 -6 -80 -10 -36 -4 -74 -9 -85 -11 -11 -2 -49 -7 -85 -10 -74 -7 -90 -16
-83 -45 5 -18 11 -19 65 -14 33 4 68 8 78 10 10 2 50 7 87 10 37 4 76 9 86 11
10 2 45 6 78 9 33 4 69 8 79 10 10 2 47 6 82 10 35 3 74 8 88 10 14 3 48 7 75
10 28 3 61 8 75 10 14 2 50 7 80 10 58 6 72 7 159 20 l54 7 -45 -46 c-25 -25
-54 -47 -64 -47 -11 -1 -28 -3 -39 -4 -11 -2 -40 -6 -65 -9 -25 -3 -65 -7 -90
-10 -25 -3 -65 -8 -90 -11 -25 -3 -61 -8 -80 -10 -19 -3 -75 -9 -125 -15 -49
-6 -104 -13 -121 -15 -17 -2 -57 -7 -90 -10 -32 -4 -72 -9 -89 -11 -16 -3 -48
-7 -70 -9 -22 -2 -53 -6 -70 -9 -16 -3 -52 -8 -80 -11 -27 -3 -59 -7 -70 -9
-11 -3 -27 -5 -35 -5 -22 -1 -22 -39 -1 -51 10 -5 20 -8 22 -6 2 2 28 7 58 11
30 4 62 8 72 10 10 2 46 6 81 9 35 4 73 8 85 10 12 3 53 8 90 11 37 4 77 9 88
11 11 2 44 7 74 10 30 3 62 7 70 9 14 2 101 13 171 20 14 2 81 10 150 19 167
21 153 25 146 -36 -3 -29 -8 -78 -11 -108 -3 -30 -7 -66 -10 -80 -4 -25 -8
-54 -20 -159 -4 -30 -8 -61 -10 -70 -1 -9 -6 -47 -9 -86 -4 -38 -9 -81 -11
-95 -2 -14 -7 -50 -10 -80 -4 -30 -9 -62 -10 -70 -1 -8 -6 -44 -10 -80 -3 -36
-8 -76 -10 -90 -2 -14 -6 -49 -10 -79 -3 -30 -8 -58 -10 -62 -5 -8 19 -19 40
-19 12 0 33 62 27 82 -1 4 5 58 13 120 8 62 17 133 20 158 3 25 8 59 10 75 2
17 7 57 10 90 3 33 8 67 10 75 3 8 7 42 10 75 3 33 8 71 10 85 3 14 7 50 10
81 3 31 7 64 9 75 2 10 7 46 10 79 4 33 9 69 11 80 2 11 4 32 4 47 1 24 68
108 86 108 3 0 3 -19 0 -42 -11 -83 -15 -113 -20 -168 -4 -30 -8 -66 -10 -80
-2 -14 -7 -50 -10 -80 -3 -30 -8 -66 -10 -80 -2 -14 -6 -47 -10 -75 -7 -63
-14 -120 -20 -165 -3 -19 -7 -53 -9 -75 -5 -45 -15 -123 -22 -175 -11 -81 -14
-130 -7 -131 5 0 16 -2 25 -4 23 -4 25 -1 32 75 4 36 8 75 10 85 2 11 7 49 11
85 3 36 9 79 11 95 3 17 7 48 9 69 3 21 7 55 9 75 6 43 13 97 21 170 4 30 8
61 10 70 1 9 6 45 10 81 4 36 9 79 11 95 2 17 7 53 10 80 20 174 20 173 65
217 l42 42 -7 -65 c-3 -35 -8 -75 -10 -89 -5 -28 -13 -102 -21 -175 -3 -27
-10 -81 -15 -120 -6 -38 -12 -90 -15 -115 -2 -25 -6 -56 -9 -70 -2 -14 -7 -52
-11 -85 -3 -33 -9 -78 -11 -100 -3 -22 -7 -53 -9 -70 -2 -16 -6 -55 -10 -85
-13 -101 -13 -105 18 -108 20 -3 27 1 28 15 0 10 2 27 4 38 2 11 7 44 10 74 3
30 8 68 10 85 3 17 7 49 9 71 11 106 18 162 22 185 6 34 19 145 29 239 2 24 7
60 10 80 2 20 7 56 10 80 3 23 7 55 9 70 4 25 10 74 21 168 4 33 14 52 45 83
40 40 50 41 44 5 -4 -23 -12 -85 -20 -152 -3 -27 -7 -59 -9 -73 -2 -14 -7 -52
-10 -85 -3 -33 -8 -71 -10 -85 -3 -14 -7 -45 -10 -70 -3 -25 -7 -62 -10 -82
-13 -100 -18 -138 -51 -423 -3 -27 -8 -53 -10 -57 -5 -8 44 -23 51 -16 5 4 11
43 20 113 3 28 8 66 10 85 3 19 7 55 10 80 3 25 8 61 10 80 3 19 7 53 10 75 2
22 7 60 10 85 3 25 8 65 11 90 3 25 7 59 10 75 3 17 7 48 9 70 2 22 7 58 10
80 3 22 8 65 11 95 22 213 23 217 65 260 22 22 42 40 45 40 5 0 -2 -72 -11
-122 -2 -11 -7 -47 -10 -81 -3 -34 -8 -73 -10 -87 -3 -14 -7 -50 -11 -80 -3
-30 -7 -66 -9 -80 -2 -14 -6 -51 -10 -83 -3 -32 -8 -67 -10 -78 -2 -11 -7 -47
-10 -80 -4 -33 -8 -69 -10 -79 -2 -10 -7 -45 -10 -77 -4 -32 -8 -69 -10 -83
-1 -14 -6 -50 -10 -82 -6 -52 -5 -57 15 -63 25 -8 39 7 41 40 0 11 2 29 4 40
1 11 5 47 9 80 3 33 8 76 11 95 3 19 7 53 10 75 3 22 7 56 10 75 9 68 16 136
21 180 2 25 6 56 9 70 2 14 7 51 10 83 4 32 8 66 10 75 1 9 6 51 10 92 4 41 8
77 10 80 2 3 6 34 10 70 9 90 12 99 58 144 l40 39 -7 -59 c-11 -103 -15 -138
-22 -184 -3 -25 -8 -61 -10 -80 -2 -19 -6 -53 -8 -75 -3 -22 -12 -96 -21 -165
-8 -69 -18 -143 -21 -165 -3 -22 -7 -53 -8 -70 -8 -66 -18 -151 -21 -175 -2
-14 -7 -44 -10 -67 -6 -43 -6 -43 25 -43 24 0 30 4 31 23 1 12 3 31 4 42 11
89 17 134 20 155 2 14 7 54 11 90 7 66 8 75 17 145 5 37 10 77 22 180 3 22 7
57 10 78 3 20 7 54 10 75 2 20 7 55 9 77 3 22 8 60 11 85 3 25 7 61 10 80 3
19 7 54 10 77 5 41 33 71 825 863 l820 820 820 -820 c754 -754 821 -824 825
-858 2 -20 6 -53 9 -72 14 -102 17 -128 20 -160 6 -56 18 -154 21 -172 2 -9 7
-48 10 -85 4 -37 9 -76 11 -87 2 -10 6 -44 9 -75 3 -31 8 -67 11 -81 2 -14 6
-50 9 -80 3 -30 7 -64 9 -75 2 -11 7 -54 12 -95 4 -41 9 -78 10 -82 1 -5 2
-17 3 -28 1 -15 8 -20 30 -20 28 0 29 2 25 38 -4 42 -11 98 -19 157 -3 22 -8
58 -10 80 -2 22 -6 60 -9 85 -3 25 -10 79 -16 120 -5 41 -12 98 -16 125 -6 47
-10 83 -19 165 -2 19 -6 55 -9 80 -4 25 -8 61 -11 80 -2 19 -8 62 -11 95 l-7
59 41 -41 c41 -41 47 -55 57 -143 3 -25 11 -79 16 -120 6 -41 12 -93 13 -115
2 -22 6 -53 9 -70 3 -16 9 -57 12 -90 3 -33 8 -71 10 -85 2 -14 7 -50 10 -80
3 -30 8 -68 10 -85 2 -16 7 -50 9 -75 6 -51 14 -118 21 -170 3 -19 8 -57 11
-85 10 -74 10 -74 16 -81 4 -3 16 -3 28 1 20 6 21 11 15 68 -4 34 -9 71 -11
82 -2 11 -7 45 -10 75 -3 30 -7 66 -9 80 -2 14 -6 50 -10 80 -3 30 -8 66 -10
80 -2 14 -7 48 -10 75 -4 42 -15 125 -30 245 -2 14 -6 50 -9 80 -4 30 -11 88
-16 129 -6 41 -8 76 -6 78 8 8 86 -79 87 -95 0 -17 2 -34 13 -127 4 -27 8 -68
11 -90 3 -22 7 -50 9 -63 3 -12 8 -48 11 -80 8 -82 12 -114 30 -247 3 -22 7
-60 10 -85 2 -25 7 -63 10 -85 2 -22 7 -60 10 -85 3 -25 8 -56 10 -70 2 -14 6
-50 10 -80 3 -30 7 -64 10 -75 2 -11 4 -26 4 -32 1 -15 50 -13 52 2 2 12 2 9
-6 66 -3 24 -7 62 -10 84 -8 82 -24 208 -30 245 -2 14 -7 54 -11 90 -3 36 -8
74 -10 85 -2 11 -6 44 -9 75 -3 31 -7 67 -10 80 -3 13 -7 49 -10 80 -3 31 -7
64 -9 75 -2 11 -7 49 -11 85 -4 36 -9 73 -10 82 -2 10 -2 18 1 18 7 0 84 -80
85 -88 2 -13 7 -58 13 -113 4 -31 8 -65 11 -77 2 -11 7 -52 10 -89 4 -37 8
-75 10 -83 2 -8 7 -40 10 -70 3 -30 8 -73 11 -95 10 -71 13 -89 19 -155 4 -36
9 -78 11 -95 3 -16 7 -48 9 -70 4 -37 19 -156 29 -230 2 -16 5 -40 5 -52 1
-18 5 -20 29 -14 32 9 32 13 8 186 -2 17 -7 55 -10 86 -4 31 -9 67 -11 80 -3
13 -7 51 -10 84 -5 55 -11 100 -21 165 -4 26 -16 130 -19 165 -1 11 -5 40 -8
65 -9 64 -17 126 -24 194 l-6 59 42 -41 c23 -22 44 -51 46 -64 2 -13 9 -66 15
-118 6 -52 13 -111 16 -130 2 -19 7 -55 10 -80 3 -25 7 -56 8 -70 2 -14 7 -52
11 -85 3 -33 8 -71 10 -85 4 -31 14 -110 21 -170 3 -25 7 -56 9 -70 2 -14 7
-50 10 -80 4 -30 9 -66 10 -80 2 -14 7 -54 10 -90 9 -78 8 -77 37 -75 19 2 23
7 22 36 -1 42 -15 166 -29 259 -3 19 -7 58 -10 85 -3 28 -7 66 -10 85 -3 19
-7 53 -9 75 -3 22 -8 60 -11 85 -3 25 -8 63 -10 84 -3 21 -7 55 -9 75 -3 20
-8 60 -11 90 -4 30 -9 63 -11 75 -8 38 -13 126 -7 126 14 0 83 -85 84 -104 1
-23 3 -41 13 -126 4 -30 9 -73 11 -95 3 -22 7 -49 9 -60 2 -11 7 -49 11 -85 3
-36 8 -72 10 -80 2 -8 7 -42 10 -75 3 -33 7 -71 10 -85 2 -14 7 -50 10 -80 3
-30 8 -73 11 -96 3 -22 7 -54 9 -70 4 -45 24 -205 30 -241 5 -28 10 -32 31
-31 25 2 25 3 19 78 -3 41 -8 82 -10 90 -5 19 -17 114 -20 160 -1 19 -5 53 -9
75 -3 22 -8 63 -11 90 -3 28 -7 64 -10 80 -2 17 -7 50 -10 75 -2 25 -7 65 -10
90 -3 25 -8 61 -10 80 -4 38 -13 105 -21 160 -3 19 -7 61 -10 93 l-4 59 57 -7
c32 -3 87 -10 123 -15 36 -5 93 -11 127 -15 34 -3 71 -8 82 -10 11 -2 48 -7
83 -11 35 -3 70 -8 78 -9 8 -1 42 -5 75 -9 33 -4 71 -9 85 -11 14 -2 52 -7 85
-11 33 -3 67 -8 75 -9 8 -2 44 -6 80 -10 36 -4 88 -11 115 -15 28 -4 52 -6 54
-4 10 9 8 54 -2 55 -7 1 -21 3 -32 4 -11 2 -51 6 -90 10 -38 4 -73 9 -76 11
-4 2 -37 6 -74 10 -37 3 -76 7 -88 10 -12 2 -47 7 -77 9 -30 3 -64 7 -75 10
-11 2 -47 6 -80 10 -33 3 -69 8 -80 10 -11 2 -49 7 -85 10 -36 4 -75 8 -86 10
-12 2 -48 6 -80 10 -33 4 -70 9 -84 11 -14 2 -50 6 -80 10 -48 5 -60 11 -99
51 l-43 45 38 -7 c22 -3 55 -8 74 -10 73 -8 136 -15 165 -20 17 -2 62 -7 100
-11 39 -3 73 -8 76 -10 4 -2 37 -6 74 -10 37 -3 74 -7 83 -9 10 -1 49 -6 87
-10 39 -4 79 -9 90 -11 28 -5 81 -12 150 -19 33 -4 77 -10 98 -15 34 -7 39 -6
47 13 12 32 -6 44 -75 51 -33 3 -98 11 -145 17 -47 6 -96 12 -110 14 -26 2
-115 14 -160 20 -14 2 -54 7 -90 11 -36 4 -74 8 -85 9 -11 2 -42 6 -70 9 -27
4 -66 9 -85 11 -83 11 -160 20 -235 29 -86 10 -96 14 -139 57 l-41 41 60 -7
c127 -13 151 -16 175 -20 22 -3 63 -9 160 -20 33 -4 116 -14 160 -20 19 -3 55
-7 80 -10 25 -3 61 -7 80 -10 19 -2 58 -7 85 -10 28 -4 62 -8 77 -11 47 -7
121 -15 163 -17 37 -2 40 0 43 26 3 24 0 27 -27 28 -17 1 -34 2 -38 3 -5 1
-39 6 -78 10 -38 5 -78 10 -87 11 -9 2 -41 6 -70 9 -29 4 -69 8 -88 10 -120
15 -145 18 -161 21 -10 2 -46 6 -81 10 -35 3 -74 8 -88 10 -29 5 -60 9 -235
30 -71 9 -145 18 -164 20 -23 3 -48 18 -73 42 -44 42 -47 54 -15 47 12 -3 42
-7 67 -10 25 -2 77 -9 115 -14 71 -10 122 -17 205 -25 25 -2 61 -7 80 -9 19
-3 58 -8 85 -11 28 -3 66 -8 85 -10 19 -3 55 -7 80 -10 25 -3 61 -7 80 -10 19
-3 55 -7 80 -10 107 -13 136 -17 151 -21 14 -4 28 19 29 48 0 3 -24 9 -52 13
-29 4 -61 9 -70 10 -9 2 -43 6 -75 10 -32 3 -69 7 -83 10 -14 2 -47 7 -75 10
-55 6 -103 11 -180 21 -72 9 -93 11 -155 18 -30 4 -71 8 -90 11 -36 5 -112 14
-165 21 -16 2 -46 6 -65 8 -19 3 -60 8 -90 11 -49 6 -60 11 -98 51 l-43 45 38
-5 c21 -3 57 -8 79 -11 23 -3 64 -8 90 -11 27 -2 60 -6 74 -9 14 -2 50 -6 80
-10 30 -3 66 -8 80 -10 14 -2 50 -7 80 -10 30 -3 73 -8 95 -12 22 -3 58 -7 80
-9 22 -1 72 -7 110 -13 117 -16 198 -25 239 -26 34 0 39 3 41 23 2 26 0 27
-135 42 -52 6 -111 13 -130 15 -79 10 -127 16 -165 20 -22 3 -58 7 -80 10 -22
3 -58 8 -80 10 -22 3 -56 7 -75 10 -19 2 -59 7 -89 10 -30 4 -63 9 -75 11 -12
3 -41 6 -66 8 -56 5 -134 15 -180 22 -19 3 -45 7 -57 8 -13 2 -42 22 -65 46
l-43 43 60 -7 c33 -3 76 -8 95 -11 19 -2 58 -7 85 -10 28 -4 61 -8 75 -10 14
-3 45 -7 70 -9 40 -4 70 -8 170 -21 25 -4 72 -9 165 -20 28 -4 61 -8 75 -10
14 -3 50 -7 80 -10 30 -3 66 -7 80 -10 124 -19 130 -18 130 8 0 32 -4 35 -71
42 -30 3 -70 8 -89 10 -45 7 -92 13 -155 20 -27 3 -61 8 -75 10 -14 2 -50 7
-80 10 -30 3 -75 8 -100 12 -25 3 -56 6 -70 8 -22 3 -50 6 -155 20 -16 2 -57
7 -90 10 -33 4 -71 8 -85 11 -14 2 -45 6 -70 9 -25 3 -61 8 -80 11 -31 4 -139
109 -853 824 l-818 818 1186 1187 c652 653 1188 1186 1190 1184 2 -2 125 -125
273 -272 l269 -268 11 28 c6 15 75 197 152 403 77 206 144 384 149 395 5 11
14 36 21 55 7 19 16 44 21 55 5 11 61 160 125 330 63 171 135 361 160 424 24
63 43 115 42 117 -2 1 -19 -3 -38 -10 -93 -34 -858 -323 -959 -363 -64 -25
-120 -46 -126 -48 -5 -1 -17 -5 -25 -8 -15 -6 -291 -110 -515 -194 -66 -25
-124 -49 -129 -54 -6 -5 92 -111 255 -274 145 -147 266 -268 268 -270 2 -2
-530 -538 -1183 -1191 l-1186 -1187 -1186 1187 c-653 653 -1185 1189 -1183
1191 2 3 125 126 273 274 170 171 264 272 255 275 -8 2 -75 28 -149 56 -74 28
-142 53 -150 55 -8 2 -31 10 -50 18 -65 26 -75 30 -80 31 -3 1 -18 7 -35 13
-16 6 -115 44 -220 83 -104 39 -200 75 -212 80 -41 18 -67 28 -118 45 -27 10
-63 23 -80 30 -28 13 -299 114 -465 175 -70 26 -183 69 -222 85 -16 7 -16 3 1
-47z m441 -178 c135 -50 258 -98 274 -106 16 -8 35 -14 43 -14 7 0 32 -9 56
-20 23 -10 60 -25 82 -33 37 -13 339 -126 654 -246 74 -28 137 -51 140 -51 3
0 -221 -227 -498 -504 -278 -278 -508 -503 -513 -500 -4 3 -8 15 -8 28 0 12
-5 27 -11 33 -6 6 -12 17 -13 24 -2 8 -7 23 -11 34 -11 29 -75 199 -134 355
-28 74 -56 149 -62 165 -7 17 -13 35 -14 40 -2 6 -13 35 -25 65 -12 30 -73
192 -136 360 -63 168 -119 314 -124 325 -5 11 -17 45 -28 75 -11 30 -25 67
-30 81 l-11 27 62 -23 c34 -12 172 -64 307 -115z m6720 124 c0 -4 -41 -115
-91 -248 -51 -133 -100 -263 -109 -291 -29 -82 -120 -318 -131 -340 -6 -12
-11 -27 -13 -35 -2 -8 -7 -26 -13 -40 -6 -14 -61 -160 -123 -325 -61 -165
-115 -306 -119 -312 -4 -8 -190 171 -510 491 -502 502 -503 503 -475 514 16 5
198 74 404 152 206 79 398 151 425 161 28 10 79 29 115 42 36 14 133 50 215
81 83 31 159 61 170 66 44 19 231 88 243 89 6 1 12 -2 12 -5z"/>
<path d="M3258 4928 c-54 -31 -76 -113 -47 -173 32 -64 108 -87 176 -52 l30
16 -8 -42 c-4 -23 -8 -45 -9 -48 -1 -22 -45 -53 -78 -56 -30 -2 -41 3 -66 30
-27 29 -30 30 -36 12 -10 -28 0 -56 23 -64 27 -10 101 -6 134 8 27 11 73 66
77 93 1 7 4 18 8 23 3 6 5 44 4 85 -2 125 -41 180 -130 185 -29 2 -55 -4 -78
-17z m99 -14 c45 -12 63 -138 25 -176 -22 -23 -59 -30 -83 -17 -24 12 -45 57
-43 89 1 14 2 35 3 47 1 26 37 63 60 63 9 0 26 -3 38 -6z"/>
<path d="M3757 4932 c-34 -14 -38 -18 -35 -46 3 -32 38 -52 38 -22 0 26 38 56
70 56 20 0 40 -9 57 -26 22 -23 25 -31 19 -71 -7 -53 -33 -91 -123 -180 -91
-90 -89 -93 63 -93 l125 0 -3 48 c-3 49 -19 60 -28 20 -6 -21 -11 -23 -78 -23
-40 0 -72 2 -72 5 0 3 29 35 66 70 103 102 128 159 97 221 -25 49 -121 69
-196 41z"/>
<path d="M4197 4930 c-9 -11 -17 -22 -17 -25 0 -3 -32 -53 -70 -112 -39 -60
-69 -115 -68 -123 3 -12 20 -15 83 -15 l80 0 2 -38 c1 -35 -1 -37 -28 -37 -19
0 -29 -5 -29 -15 0 -22 165 -22 173 -1 4 11 -3 16 -26 18 -29 3 -32 6 -32 37
0 32 3 35 33 37 57 4 58 25 2 28 -37 1 -39 7 -38 121 0 148 1 145 -25 145 -12
0 -30 -9 -40 -20z m10 -147 l-2 -98 -55 -1 c-30 0 -58 1 -62 3 -5 3 111 193
118 193 1 0 1 -44 1 -97z"/>
<path d="M3610 4843 c-16 -54 -30 -100 -30 -103 0 -3 -15 -52 -35 -109 -40
-121 -42 -131 -17 -131 15 0 26 24 57 123 21 67 51 162 67 212 33 107 33 105
8 105 -16 0 -25 -17 -50 -97z"/>
<path d="M6187 4254 c-1 -1 -27 -4 -57 -7 -82 -9 -99 -13 -175 -51 -174 -86
-274 -258 -280 -481 -5 -226 82 -411 244 -514 189 -121 488 -92 624 59 50 56
104 159 88 169 -9 6 -71 7 -117 2 -6 0 -21 -26 -33 -56 -46 -110 -149 -169
-296 -168 -111 0 -183 34 -253 118 -18 21 -62 118 -67 147 -3 13 -9 44 -13 70
-16 83 -6 294 17 371 54 182 156 260 340 259 96 0 177 -29 231 -82 33 -33 66
-88 74 -125 11 -48 18 -55 57 -55 44 0 41 -7 41 130 -1 133 2 124 -39 138 -82
27 -220 63 -263 67 -62 8 -120 12 -123 9z"/>
<path d="M1130 4215 c-4 -5 -60 -145 -123 -310 -63 -166 -132 -343 -152 -395
-20 -52 -50 -131 -67 -175 -46 -124 -46 -123 -82 -121 -44 3 -63 -9 -60 -36 1
-13 3 -28 3 -33 1 -14 301 -14 302 0 0 5 2 20 3 33 3 29 -17 40 -71 36 -24 -2
-43 0 -43 4 0 4 19 58 42 120 l41 112 230 -2 229 -3 39 -100 c52 -133 52 -130
4 -131 -22 -1 -48 -2 -57 -3 -14 -1 -18 -10 -18 -36 0 -19 3 -36 8 -36 4 -1
94 -2 200 -3 l192 -1 -2 40 -3 40 -52 -2 -52 -1 -30 80 c-17 44 -31 82 -31 84
0 3 -8 24 -19 47 -10 23 -31 76 -46 117 -15 41 -33 89 -40 105 -6 17 -22 57
-35 90 -12 33 -28 74 -35 90 -6 17 -22 57 -35 90 -12 33 -26 69 -30 80 -5 11
-25 65 -46 120 -21 55 -39 101 -40 103 -5 9 -116 6 -124 -3z m63 -271 c30 -79
134 -350 152 -396 7 -17 -6 -18 -189 -18 -108 0 -196 3 -196 7 0 6 54 149 71
188 5 11 25 63 44 115 20 52 38 102 42 110 3 8 7 17 8 20 20 54 28 70 31 67 2
-2 19 -44 37 -93z"/>
<path d="M3196 2753 c-43 -13 -46 -16 -46 -48 0 -47 14 -51 38 -11 38 65 131
57 145 -12 14 -67 -5 -101 -117 -215 -36 -37 -66 -74 -66 -82 0 -13 20 -15
125 -15 l125 0 0 45 c0 37 -3 45 -18 45 -13 0 -18 -7 -18 -22 1 -22 -3 -23
-71 -24 -40 -1 -73 2 -73 5 0 4 27 33 61 66 77 76 111 128 111 172 0 87 -84
128 -196 96z"/>
<path d="M3570 2753 c-108 -55 -113 -318 -7 -375 100 -53 187 25 190 169 1 88
-6 125 -33 163 -39 55 -95 71 -150 43z m83 -26 c30 -22 46 -86 43 -177 -5
-123 -26 -165 -82 -158 -45 5 -66 53 -69 156 -3 149 44 227 108 179z"/>
<path d="M3910 2763 c-60 -9 -80 -24 -80 -59 0 -44 16 -51 35 -15 8 17 23 34
33 39 16 8 26 8 75 4 23 -2 48 -61 41 -97 -9 -48 -30 -78 -112 -159 -46 -46
-78 -85 -75 -93 4 -10 35 -13 129 -13 l123 0 -1 45 c0 31 -5 45 -14 45 -8 0
-15 -4 -15 -10 -1 -5 -2 -16 -3 -22 -1 -9 -25 -13 -79 -14 l-78 -1 48 50 c26
28 58 60 69 71 70 69 83 148 34 196 -17 17 -38 30 -48 31 -9 0 -26 2 -37 3
-11 2 -31 1 -45 -1z"/>
<path d="M4206 2752 c-31 -12 -36 -19 -36 -47 0 -47 15 -51 38 -10 34 56 103
60 133 8 16 -26 16 -47 4 -101 -3 -12 -46 -65 -96 -117 -49 -52 -87 -100 -84
-105 4 -6 59 -10 131 -10 l125 0 -3 42 c-2 30 -8 44 -19 46 -12 2 -16 -4 -14
-20 3 -23 0 -24 -76 -24 -91 -1 -93 -11 14 97 105 107 115 194 28 239 -35 18
-103 19 -145 2z"/>
</g>
</svg>
